<mxfile host="app.diagrams.net" modified="2023-03-18T22:19:28.777Z" agent="5.0 (X11; Linux x86_64) AppleWebKit/537.36 (KHTML, like Gecko) Chrome/111.0.0.0 Safari/537.36" etag="kLYqLGl5sY_sTfhd4DLr" version="21.0.8" type="github">
  <diagram name="Page-1" id="c4acf3e9-155e-7222-9cf6-157b1a14988f">
    <mxGraphModel dx="563" dy="833" grid="1" gridSize="10" guides="1" tooltips="1" connect="1" arrows="1" fold="1" page="1" pageScale="1" pageWidth="850" pageHeight="1100" background="none" math="0" shadow="0">
      <root>
        <mxCell id="0" />
        <mxCell id="1" parent="0" />
        <mxCell id="Ps_EMhDIZoAq7-vSNueT-5" value="ContextManager" style="swimlane;fontStyle=1;align=center;verticalAlign=top;childLayout=stackLayout;horizontal=1;startSize=26;horizontalStack=0;resizeParent=1;resizeParentMax=0;resizeLast=0;collapsible=1;marginBottom=0;" parent="1" vertex="1">
          <mxGeometry x="640" y="120" width="160" height="112" as="geometry" />
        </mxCell>
        <mxCell id="Ps_EMhDIZoAq7-vSNueT-6" value="- contextMap: map" style="text;strokeColor=none;fillColor=none;align=left;verticalAlign=top;spacingLeft=4;spacingRight=4;overflow=hidden;rotatable=0;points=[[0,0.5],[1,0.5]];portConstraint=eastwest;" parent="Ps_EMhDIZoAq7-vSNueT-5" vertex="1">
          <mxGeometry y="26" width="160" height="26" as="geometry" />
        </mxCell>
        <mxCell id="Ps_EMhDIZoAq7-vSNueT-7" value="" style="line;strokeWidth=1;fillColor=none;align=left;verticalAlign=middle;spacingTop=-1;spacingLeft=3;spacingRight=3;rotatable=0;labelPosition=right;points=[];portConstraint=eastwest;strokeColor=inherit;" parent="Ps_EMhDIZoAq7-vSNueT-5" vertex="1">
          <mxGeometry y="52" width="160" height="8" as="geometry" />
        </mxCell>
        <mxCell id="Ps_EMhDIZoAq7-vSNueT-8" value="+ setVariable(key, value)" style="text;strokeColor=none;fillColor=none;align=left;verticalAlign=top;spacingLeft=4;spacingRight=4;overflow=hidden;rotatable=0;points=[[0,0.5],[1,0.5]];portConstraint=eastwest;" parent="Ps_EMhDIZoAq7-vSNueT-5" vertex="1">
          <mxGeometry y="60" width="160" height="26" as="geometry" />
        </mxCell>
        <mxCell id="Ps_EMhDIZoAq7-vSNueT-9" value="+ getVariable(key): String" style="text;strokeColor=none;fillColor=none;align=left;verticalAlign=top;spacingLeft=4;spacingRight=4;overflow=hidden;rotatable=0;points=[[0,0.5],[1,0.5]];portConstraint=eastwest;" parent="Ps_EMhDIZoAq7-vSNueT-5" vertex="1">
          <mxGeometry y="86" width="160" height="26" as="geometry" />
        </mxCell>
        <mxCell id="Ps_EMhDIZoAq7-vSNueT-10" value="Application" style="swimlane;fontStyle=1;align=center;verticalAlign=top;childLayout=stackLayout;horizontal=1;startSize=26;horizontalStack=0;resizeParent=1;resizeParentMax=0;resizeLast=0;collapsible=1;marginBottom=0;" parent="1" vertex="1">
          <mxGeometry x="320" y="120" width="210" height="86" as="geometry" />
        </mxCell>
        <mxCell id="Ps_EMhDIZoAq7-vSNueT-11" value="+ contextManager: ContextManager" style="text;strokeColor=none;fillColor=none;align=left;verticalAlign=top;spacingLeft=4;spacingRight=4;overflow=hidden;rotatable=0;points=[[0,0.5],[1,0.5]];portConstraint=eastwest;" parent="Ps_EMhDIZoAq7-vSNueT-10" vertex="1">
          <mxGeometry y="26" width="210" height="26" as="geometry" />
        </mxCell>
        <mxCell id="Ps_EMhDIZoAq7-vSNueT-12" value="" style="line;strokeWidth=1;fillColor=none;align=left;verticalAlign=middle;spacingTop=-1;spacingLeft=3;spacingRight=3;rotatable=0;labelPosition=right;points=[];portConstraint=eastwest;strokeColor=inherit;" parent="Ps_EMhDIZoAq7-vSNueT-10" vertex="1">
          <mxGeometry y="52" width="210" height="8" as="geometry" />
        </mxCell>
        <mxCell id="Ps_EMhDIZoAq7-vSNueT-13" value="+ run()" style="text;strokeColor=none;fillColor=none;align=left;verticalAlign=top;spacingLeft=4;spacingRight=4;overflow=hidden;rotatable=0;points=[[0,0.5],[1,0.5]];portConstraint=eastwest;" parent="Ps_EMhDIZoAq7-vSNueT-10" vertex="1">
          <mxGeometry y="60" width="210" height="26" as="geometry" />
        </mxCell>
        <mxCell id="Ps_EMhDIZoAq7-vSNueT-14" value="«utility»&#xa;Lexer" style="swimlane;fontStyle=1;align=center;verticalAlign=top;childLayout=stackLayout;horizontal=1;startSize=40;horizontalStack=0;resizeParent=1;resizeParentMax=0;resizeLast=0;collapsible=1;marginBottom=0;" parent="1" vertex="1">
          <mxGeometry x="40" y="240" width="160" height="74" as="geometry" />
        </mxCell>
        <mxCell id="Ps_EMhDIZoAq7-vSNueT-16" value="" style="line;strokeWidth=1;fillColor=none;align=left;verticalAlign=middle;spacingTop=-1;spacingLeft=3;spacingRight=3;rotatable=0;labelPosition=right;points=[];portConstraint=eastwest;strokeColor=inherit;" parent="Ps_EMhDIZoAq7-vSNueT-14" vertex="1">
          <mxGeometry y="40" width="160" height="8" as="geometry" />
        </mxCell>
        <mxCell id="Ps_EMhDIZoAq7-vSNueT-17" value="+ lex(String): [[String]]" style="text;strokeColor=none;fillColor=none;align=left;verticalAlign=top;spacingLeft=4;spacingRight=4;overflow=hidden;rotatable=0;points=[[0,0.5],[1,0.5]];portConstraint=eastwest;" parent="Ps_EMhDIZoAq7-vSNueT-14" vertex="1">
          <mxGeometry y="48" width="160" height="26" as="geometry" />
        </mxCell>
        <mxCell id="Ps_EMhDIZoAq7-vSNueT-18" value="«utility»&#xa;Substituter" style="swimlane;fontStyle=1;align=center;verticalAlign=top;childLayout=stackLayout;horizontal=1;startSize=40;horizontalStack=0;resizeParent=1;resizeParentMax=0;resizeLast=0;collapsible=1;marginBottom=0;" parent="1" vertex="1">
          <mxGeometry x="120" y="350" width="180" height="74" as="geometry" />
        </mxCell>
        <mxCell id="Ps_EMhDIZoAq7-vSNueT-20" value="" style="line;strokeWidth=1;fillColor=none;align=left;verticalAlign=middle;spacingTop=-1;spacingLeft=3;spacingRight=3;rotatable=0;labelPosition=right;points=[];portConstraint=eastwest;strokeColor=inherit;" parent="Ps_EMhDIZoAq7-vSNueT-18" vertex="1">
          <mxGeometry y="40" width="180" height="8" as="geometry" />
        </mxCell>
        <mxCell id="Ps_EMhDIZoAq7-vSNueT-21" value="+ substitute(String): String" style="text;strokeColor=none;fillColor=none;align=left;verticalAlign=top;spacingLeft=4;spacingRight=4;overflow=hidden;rotatable=0;points=[[0,0.5],[1,0.5]];portConstraint=eastwest;" parent="Ps_EMhDIZoAq7-vSNueT-18" vertex="1">
          <mxGeometry y="48" width="180" height="26" as="geometry" />
        </mxCell>
        <mxCell id="Ps_EMhDIZoAq7-vSNueT-22" value="«utility»&#xa;Constructor" style="swimlane;fontStyle=1;align=center;verticalAlign=top;childLayout=stackLayout;horizontal=1;startSize=40;horizontalStack=0;resizeParent=1;resizeParentMax=0;resizeLast=0;collapsible=1;marginBottom=0;" parent="1" vertex="1">
          <mxGeometry x="340" y="400" width="210" height="74" as="geometry" />
        </mxCell>
        <mxCell id="Ps_EMhDIZoAq7-vSNueT-24" value="" style="line;strokeWidth=1;fillColor=none;align=left;verticalAlign=middle;spacingTop=-1;spacingLeft=3;spacingRight=3;rotatable=0;labelPosition=right;points=[];portConstraint=eastwest;strokeColor=inherit;" parent="Ps_EMhDIZoAq7-vSNueT-22" vertex="1">
          <mxGeometry y="40" width="210" height="8" as="geometry" />
        </mxCell>
        <mxCell id="Ps_EMhDIZoAq7-vSNueT-25" value="+ construct([String]): Executable" style="text;strokeColor=none;fillColor=none;align=left;verticalAlign=top;spacingLeft=4;spacingRight=4;overflow=hidden;rotatable=0;points=[[0,0.5],[1,0.5]];portConstraint=eastwest;" parent="Ps_EMhDIZoAq7-vSNueT-22" vertex="1">
          <mxGeometry y="48" width="210" height="26" as="geometry" />
        </mxCell>
        <mxCell id="Ps_EMhDIZoAq7-vSNueT-26" value="Executable" style="swimlane;fontStyle=3;align=center;verticalAlign=top;childLayout=stackLayout;horizontal=1;startSize=30;horizontalStack=0;resizeParent=1;resizeParentMax=0;resizeLast=0;collapsible=1;marginBottom=0;" parent="1" vertex="1">
          <mxGeometry x="355" y="540" width="180" height="166" as="geometry" />
        </mxCell>
        <mxCell id="Ps_EMhDIZoAq7-vSNueT-32" value="- arguments : [String]" style="text;strokeColor=none;fillColor=none;align=left;verticalAlign=top;spacingLeft=4;spacingRight=4;overflow=hidden;rotatable=0;points=[[0,0.5],[1,0.5]];portConstraint=eastwest;" parent="Ps_EMhDIZoAq7-vSNueT-26" vertex="1">
          <mxGeometry y="30" width="180" height="26" as="geometry" />
        </mxCell>
        <mxCell id="j12_i2PCOQDTPFTEPJDZ-3" value="+ stdout : Stream" style="text;strokeColor=none;fillColor=none;align=left;verticalAlign=top;spacingLeft=4;spacingRight=4;overflow=hidden;rotatable=0;points=[[0,0.5],[1,0.5]];portConstraint=eastwest;" parent="Ps_EMhDIZoAq7-vSNueT-26" vertex="1">
          <mxGeometry y="56" width="180" height="24" as="geometry" />
        </mxCell>
        <mxCell id="UxiabnuLhHAD857Y_fqr-1" value="+ stderr : Stream" style="text;strokeColor=none;fillColor=none;align=left;verticalAlign=top;spacingLeft=4;spacingRight=4;overflow=hidden;rotatable=0;points=[[0,0.5],[1,0.5]];portConstraint=eastwest;" parent="Ps_EMhDIZoAq7-vSNueT-26" vertex="1">
          <mxGeometry y="80" width="180" height="26" as="geometry" />
        </mxCell>
        <mxCell id="j12_i2PCOQDTPFTEPJDZ-1" value="+ return_code: int" style="text;strokeColor=none;fillColor=none;align=left;verticalAlign=top;spacingLeft=4;spacingRight=4;overflow=hidden;rotatable=0;points=[[0,0.5],[1,0.5]];portConstraint=eastwest;" parent="Ps_EMhDIZoAq7-vSNueT-26" vertex="1">
          <mxGeometry y="106" width="180" height="26" as="geometry" />
        </mxCell>
        <mxCell id="Ps_EMhDIZoAq7-vSNueT-28" value="" style="line;strokeWidth=1;fillColor=none;align=left;verticalAlign=middle;spacingTop=-1;spacingLeft=3;spacingRight=3;rotatable=0;labelPosition=right;points=[];portConstraint=eastwest;strokeColor=inherit;" parent="Ps_EMhDIZoAq7-vSNueT-26" vertex="1">
          <mxGeometry y="132" width="180" height="8" as="geometry" />
        </mxCell>
        <mxCell id="Ps_EMhDIZoAq7-vSNueT-29" value="+ execute(Stream stdin)" style="text;strokeColor=none;fillColor=none;align=left;verticalAlign=top;spacingLeft=4;spacingRight=4;overflow=hidden;rotatable=0;points=[[0,0.5],[1,0.5]];portConstraint=eastwest;" parent="Ps_EMhDIZoAq7-vSNueT-26" vertex="1">
          <mxGeometry y="140" width="180" height="26" as="geometry" />
        </mxCell>
        <mxCell id="Ps_EMhDIZoAq7-vSNueT-36" value="&lt;p style=&quot;margin:0px;margin-top:4px;text-align:center;&quot;&gt;&lt;b&gt;WC&lt;/b&gt;&lt;/p&gt;" style="verticalAlign=top;align=left;overflow=fill;fontSize=12;fontFamily=Helvetica;html=1;" parent="1" vertex="1">
          <mxGeometry x="160" y="770" width="80" height="40" as="geometry" />
        </mxCell>
        <mxCell id="Ps_EMhDIZoAq7-vSNueT-37" value="&lt;p style=&quot;margin:0px;margin-top:4px;text-align:center;&quot;&gt;&lt;b&gt;Echo&lt;/b&gt;&lt;/p&gt;" style="verticalAlign=top;align=left;overflow=fill;fontSize=12;fontFamily=Helvetica;html=1;" parent="1" vertex="1">
          <mxGeometry x="280" y="770" width="80" height="40" as="geometry" />
        </mxCell>
        <mxCell id="Ps_EMhDIZoAq7-vSNueT-38" value="&lt;p style=&quot;margin:0px;margin-top:4px;text-align:center;&quot;&gt;&lt;b&gt;Cat&lt;/b&gt;&lt;/p&gt;" style="verticalAlign=top;align=left;overflow=fill;fontSize=12;fontFamily=Helvetica;html=1;" parent="1" vertex="1">
          <mxGeometry x="160" y="850" width="80" height="40" as="geometry" />
        </mxCell>
        <mxCell id="Ps_EMhDIZoAq7-vSNueT-39" value="&lt;p style=&quot;margin:0px;margin-top:4px;text-align:center;&quot;&gt;&lt;b&gt;PWD&lt;/b&gt;&lt;/p&gt;" style="verticalAlign=top;align=left;overflow=fill;fontSize=12;fontFamily=Helvetica;html=1;" parent="1" vertex="1">
          <mxGeometry x="280" y="850" width="80" height="40" as="geometry" />
        </mxCell>
        <mxCell id="Ps_EMhDIZoAq7-vSNueT-41" value="&lt;p style=&quot;margin:0px;margin-top:4px;text-align:center;&quot;&gt;&lt;b&gt;Exit&lt;/b&gt;&lt;/p&gt;" style="verticalAlign=top;align=left;overflow=fill;fontSize=12;fontFamily=Helvetica;html=1;" parent="1" vertex="1">
          <mxGeometry x="400" y="850" width="80" height="40" as="geometry" />
        </mxCell>
        <mxCell id="Ps_EMhDIZoAq7-vSNueT-42" value="&lt;p style=&quot;margin:0px;margin-top:4px;text-align:center;&quot;&gt;&lt;b&gt;Assign&lt;/b&gt;&lt;/p&gt;" style="verticalAlign=top;align=left;overflow=fill;fontSize=12;fontFamily=Helvetica;html=1;" parent="1" vertex="1">
          <mxGeometry x="400" y="770" width="80" height="40" as="geometry" />
        </mxCell>
        <mxCell id="Ps_EMhDIZoAq7-vSNueT-43" value="GlobalExecutable" style="swimlane;fontStyle=1;align=center;verticalAlign=top;childLayout=stackLayout;horizontal=1;startSize=26;horizontalStack=0;resizeParent=1;resizeParentMax=0;resizeLast=0;collapsible=1;marginBottom=0;" parent="1" vertex="1">
          <mxGeometry x="560" y="780" width="160" height="60" as="geometry" />
        </mxCell>
        <mxCell id="Ps_EMhDIZoAq7-vSNueT-44" value="- system_process" style="text;strokeColor=none;fillColor=none;align=left;verticalAlign=top;spacingLeft=4;spacingRight=4;overflow=hidden;rotatable=0;points=[[0,0.5],[1,0.5]];portConstraint=eastwest;" parent="Ps_EMhDIZoAq7-vSNueT-43" vertex="1">
          <mxGeometry y="26" width="160" height="26" as="geometry" />
        </mxCell>
        <mxCell id="Ps_EMhDIZoAq7-vSNueT-45" value="" style="line;strokeWidth=1;fillColor=none;align=left;verticalAlign=middle;spacingTop=-1;spacingLeft=3;spacingRight=3;rotatable=0;labelPosition=right;points=[];portConstraint=eastwest;strokeColor=inherit;" parent="Ps_EMhDIZoAq7-vSNueT-43" vertex="1">
          <mxGeometry y="52" width="160" height="8" as="geometry" />
        </mxCell>
        <mxCell id="Ps_EMhDIZoAq7-vSNueT-53" value="" style="endArrow=block;endSize=16;endFill=0;html=1;strokeColor=default;exitX=0.574;exitY=-0.003;exitDx=0;exitDy=0;exitPerimeter=0;rounded=0;edgeStyle=orthogonalEdgeStyle;" parent="1" source="Ps_EMhDIZoAq7-vSNueT-36" target="Ps_EMhDIZoAq7-vSNueT-26" edge="1">
          <mxGeometry width="160" relative="1" as="geometry">
            <mxPoint x="190" y="780" as="sourcePoint" />
            <mxPoint x="350" y="780" as="targetPoint" />
            <Array as="points">
              <mxPoint x="206" y="740" />
              <mxPoint x="440" y="740" />
            </Array>
          </mxGeometry>
        </mxCell>
        <mxCell id="Ps_EMhDIZoAq7-vSNueT-54" value="" style="endArrow=block;endSize=16;endFill=0;html=1;strokeColor=default;rounded=0;edgeStyle=orthogonalEdgeStyle;" parent="1" source="Ps_EMhDIZoAq7-vSNueT-38" target="Ps_EMhDIZoAq7-vSNueT-26" edge="1">
          <mxGeometry width="160" relative="1" as="geometry">
            <mxPoint x="216" y="780" as="sourcePoint" />
            <mxPoint x="450" y="730" as="targetPoint" />
            <Array as="points">
              <mxPoint x="260" y="870" />
              <mxPoint x="260" y="740" />
              <mxPoint x="440" y="740" />
            </Array>
          </mxGeometry>
        </mxCell>
        <mxCell id="Ps_EMhDIZoAq7-vSNueT-55" value="" style="endArrow=block;endSize=16;endFill=0;html=1;strokeColor=default;rounded=0;edgeStyle=orthogonalEdgeStyle;" parent="1" source="Ps_EMhDIZoAq7-vSNueT-37" target="Ps_EMhDIZoAq7-vSNueT-26" edge="1">
          <mxGeometry width="160" relative="1" as="geometry">
            <mxPoint x="226" y="790" as="sourcePoint" />
            <mxPoint x="380" y="744" as="targetPoint" />
            <Array as="points">
              <mxPoint x="320" y="740" />
              <mxPoint x="440" y="740" />
            </Array>
          </mxGeometry>
        </mxCell>
        <mxCell id="Ps_EMhDIZoAq7-vSNueT-56" value="" style="endArrow=block;endSize=16;endFill=0;html=1;strokeColor=default;rounded=0;edgeStyle=orthogonalEdgeStyle;" parent="1" source="Ps_EMhDIZoAq7-vSNueT-39" target="Ps_EMhDIZoAq7-vSNueT-26" edge="1">
          <mxGeometry width="160" relative="1" as="geometry">
            <mxPoint x="236" y="800" as="sourcePoint" />
            <mxPoint x="390" y="754" as="targetPoint" />
            <Array as="points">
              <mxPoint x="380" y="870" />
              <mxPoint x="380" y="740" />
              <mxPoint x="440" y="740" />
            </Array>
          </mxGeometry>
        </mxCell>
        <mxCell id="Ps_EMhDIZoAq7-vSNueT-57" value="" style="endArrow=block;endSize=16;endFill=0;html=1;strokeColor=default;rounded=0;edgeStyle=orthogonalEdgeStyle;" parent="1" source="Ps_EMhDIZoAq7-vSNueT-42" target="Ps_EMhDIZoAq7-vSNueT-26" edge="1">
          <mxGeometry width="160" relative="1" as="geometry">
            <mxPoint x="246" y="810" as="sourcePoint" />
            <mxPoint x="400" y="764" as="targetPoint" />
            <Array as="points">
              <mxPoint x="440" y="730" />
              <mxPoint x="440" y="730" />
            </Array>
          </mxGeometry>
        </mxCell>
        <mxCell id="Ps_EMhDIZoAq7-vSNueT-58" value="" style="endArrow=block;endSize=16;endFill=0;html=1;strokeColor=default;rounded=0;edgeStyle=orthogonalEdgeStyle;" parent="1" source="Ps_EMhDIZoAq7-vSNueT-41" target="Ps_EMhDIZoAq7-vSNueT-26" edge="1">
          <mxGeometry width="160" relative="1" as="geometry">
            <mxPoint x="256" y="820" as="sourcePoint" />
            <mxPoint x="410" y="774" as="targetPoint" />
            <Array as="points">
              <mxPoint x="500" y="870" />
              <mxPoint x="500" y="740" />
              <mxPoint x="440" y="740" />
            </Array>
          </mxGeometry>
        </mxCell>
        <mxCell id="Ps_EMhDIZoAq7-vSNueT-59" value="" style="endArrow=block;endSize=16;endFill=0;html=1;strokeColor=default;rounded=0;edgeStyle=orthogonalEdgeStyle;" parent="1" source="Ps_EMhDIZoAq7-vSNueT-43" target="Ps_EMhDIZoAq7-vSNueT-26" edge="1">
          <mxGeometry width="160" relative="1" as="geometry">
            <mxPoint x="266" y="830" as="sourcePoint" />
            <mxPoint x="420" y="784" as="targetPoint" />
            <Array as="points">
              <mxPoint x="640" y="658" />
            </Array>
          </mxGeometry>
        </mxCell>
        <mxCell id="UxiabnuLhHAD857Y_fqr-2" value="«utility»&#xa;Executor" style="swimlane;fontStyle=1;align=center;verticalAlign=top;childLayout=stackLayout;horizontal=1;startSize=40;horizontalStack=0;resizeParent=1;resizeParentMax=0;resizeLast=0;collapsible=1;marginBottom=0;" parent="1" vertex="1">
          <mxGeometry x="630" y="360" width="160" height="74" as="geometry" />
        </mxCell>
        <mxCell id="UxiabnuLhHAD857Y_fqr-4" value="" style="line;strokeWidth=1;fillColor=none;align=left;verticalAlign=middle;spacingTop=-1;spacingLeft=3;spacingRight=3;rotatable=0;labelPosition=right;points=[];portConstraint=eastwest;strokeColor=inherit;" parent="UxiabnuLhHAD857Y_fqr-2" vertex="1">
          <mxGeometry y="40" width="160" height="8" as="geometry" />
        </mxCell>
        <mxCell id="UxiabnuLhHAD857Y_fqr-5" value="+ exec([Executable])" style="text;strokeColor=none;fillColor=none;align=left;verticalAlign=top;spacingLeft=4;spacingRight=4;overflow=hidden;rotatable=0;points=[[0,0.5],[1,0.5]];portConstraint=eastwest;" parent="UxiabnuLhHAD857Y_fqr-2" vertex="1">
          <mxGeometry y="48" width="160" height="26" as="geometry" />
        </mxCell>
        <mxCell id="UxiabnuLhHAD857Y_fqr-8" value="" style="endArrow=open;endFill=1;endSize=12;html=1;rounded=0;" parent="1" source="Ps_EMhDIZoAq7-vSNueT-13" target="Ps_EMhDIZoAq7-vSNueT-14" edge="1">
          <mxGeometry width="160" relative="1" as="geometry">
            <mxPoint x="330" y="420" as="sourcePoint" />
            <mxPoint x="490" y="420" as="targetPoint" />
          </mxGeometry>
        </mxCell>
        <mxCell id="UxiabnuLhHAD857Y_fqr-9" value="" style="endArrow=open;endFill=1;endSize=12;html=1;rounded=0;" parent="1" source="Ps_EMhDIZoAq7-vSNueT-13" target="UxiabnuLhHAD857Y_fqr-2" edge="1">
          <mxGeometry width="160" relative="1" as="geometry">
            <mxPoint x="330" y="215" as="sourcePoint" />
            <mxPoint x="244" y="250" as="targetPoint" />
          </mxGeometry>
        </mxCell>
        <mxCell id="UxiabnuLhHAD857Y_fqr-10" value="" style="endArrow=open;endFill=1;endSize=12;html=1;rounded=0;" parent="1" source="Ps_EMhDIZoAq7-vSNueT-13" target="Ps_EMhDIZoAq7-vSNueT-22" edge="1">
          <mxGeometry width="160" relative="1" as="geometry">
            <mxPoint x="432" y="216" as="sourcePoint" />
            <mxPoint x="422" y="330" as="targetPoint" />
          </mxGeometry>
        </mxCell>
        <mxCell id="UxiabnuLhHAD857Y_fqr-11" value="1" style="endArrow=open;html=1;endSize=12;startArrow=diamondThin;startSize=14;startFill=1;edgeStyle=orthogonalEdgeStyle;align=left;verticalAlign=bottom;rounded=0;exitX=1;exitY=0.5;exitDx=0;exitDy=0;" parent="1" source="Ps_EMhDIZoAq7-vSNueT-11" target="Ps_EMhDIZoAq7-vSNueT-5" edge="1">
          <mxGeometry x="-1" y="3" relative="1" as="geometry">
            <mxPoint x="330" y="420" as="sourcePoint" />
            <mxPoint x="490" y="420" as="targetPoint" />
          </mxGeometry>
        </mxCell>
        <mxCell id="UxiabnuLhHAD857Y_fqr-12" value="" style="endArrow=open;endFill=1;endSize=12;html=1;rounded=0;" parent="1" source="Ps_EMhDIZoAq7-vSNueT-13" target="Ps_EMhDIZoAq7-vSNueT-18" edge="1">
          <mxGeometry width="160" relative="1" as="geometry">
            <mxPoint x="449" y="216" as="sourcePoint" />
            <mxPoint x="658" y="410" as="targetPoint" />
          </mxGeometry>
        </mxCell>
        <mxCell id="UxiabnuLhHAD857Y_fqr-13" value="return" style="html=1;verticalAlign=bottom;endArrow=open;dashed=1;endSize=8;edgeStyle=elbowEdgeStyle;elbow=vertical;curved=0;rounded=0;" parent="1" source="Ps_EMhDIZoAq7-vSNueT-25" target="Ps_EMhDIZoAq7-vSNueT-26" edge="1">
          <mxGeometry relative="1" as="geometry">
            <mxPoint x="450" y="390" as="sourcePoint" />
            <mxPoint x="370" y="390" as="targetPoint" />
          </mxGeometry>
        </mxCell>
        <mxCell id="UxiabnuLhHAD857Y_fqr-14" value="" style="endArrow=open;endFill=1;endSize=12;html=1;rounded=0;" parent="1" source="UxiabnuLhHAD857Y_fqr-5" target="Ps_EMhDIZoAq7-vSNueT-26" edge="1">
          <mxGeometry width="160" relative="1" as="geometry">
            <mxPoint x="449" y="216" as="sourcePoint" />
            <mxPoint x="658" y="410" as="targetPoint" />
          </mxGeometry>
        </mxCell>
        <mxCell id="oLGFi5Bt2kVoAcSP6h3x-18" value="call" style="edgeLabel;html=1;align=center;verticalAlign=middle;resizable=0;points=[];" parent="UxiabnuLhHAD857Y_fqr-14" vertex="1" connectable="0">
          <mxGeometry x="-0.0721" y="1" relative="1" as="geometry">
            <mxPoint as="offset" />
          </mxGeometry>
        </mxCell>
        <mxCell id="UxiabnuLhHAD857Y_fqr-17" value="" style="endArrow=block;endSize=16;endFill=0;html=1;strokeColor=default;exitX=0.574;exitY=-0.003;exitDx=0;exitDy=0;exitPerimeter=0;rounded=0;edgeStyle=orthogonalEdgeStyle;" parent="1" source="Ps_EMhDIZoAq7-vSNueT-36" target="Ps_EMhDIZoAq7-vSNueT-26" edge="1">
          <mxGeometry width="160" relative="1" as="geometry">
            <mxPoint x="206" y="770" as="sourcePoint" />
            <mxPoint x="440" y="716" as="targetPoint" />
            <Array as="points">
              <mxPoint x="206" y="740" />
              <mxPoint x="440" y="740" />
            </Array>
          </mxGeometry>
        </mxCell>
        <mxCell id="UxiabnuLhHAD857Y_fqr-19" value="" style="endArrow=block;endSize=16;endFill=0;html=1;strokeColor=default;rounded=0;edgeStyle=orthogonalEdgeStyle;" parent="1" source="Ps_EMhDIZoAq7-vSNueT-37" target="Ps_EMhDIZoAq7-vSNueT-26" edge="1">
          <mxGeometry width="160" relative="1" as="geometry">
            <mxPoint x="320" y="770" as="sourcePoint" />
            <mxPoint x="440" y="716" as="targetPoint" />
            <Array as="points">
              <mxPoint x="320" y="740" />
              <mxPoint x="440" y="740" />
            </Array>
          </mxGeometry>
        </mxCell>
        <mxCell id="oLGFi5Bt2kVoAcSP6h3x-3" value="«interface»&#xa;LexerAction" style="swimlane;fontStyle=1;align=center;verticalAlign=top;childLayout=stackLayout;horizontal=1;startSize=40;horizontalStack=0;resizeParent=1;resizeParentMax=0;resizeLast=0;collapsible=1;marginBottom=0;" parent="1" vertex="1">
          <mxGeometry x="10" y="450" width="160" height="74" as="geometry" />
        </mxCell>
        <mxCell id="oLGFi5Bt2kVoAcSP6h3x-4" value="" style="line;strokeWidth=1;fillColor=none;align=left;verticalAlign=middle;spacingTop=-1;spacingLeft=3;spacingRight=3;rotatable=0;labelPosition=right;points=[];portConstraint=eastwest;strokeColor=inherit;" parent="oLGFi5Bt2kVoAcSP6h3x-3" vertex="1">
          <mxGeometry y="40" width="160" height="8" as="geometry" />
        </mxCell>
        <mxCell id="oLGFi5Bt2kVoAcSP6h3x-5" value="+ perform([String]): [String]" style="text;strokeColor=none;fillColor=none;align=left;verticalAlign=top;spacingLeft=4;spacingRight=4;overflow=hidden;rotatable=0;points=[[0,0.5],[1,0.5]];portConstraint=eastwest;" parent="oLGFi5Bt2kVoAcSP6h3x-3" vertex="1">
          <mxGeometry y="48" width="160" height="26" as="geometry" />
        </mxCell>
        <mxCell id="oLGFi5Bt2kVoAcSP6h3x-7" value="" style="endArrow=open;html=1;endSize=12;startArrow=diamondThin;startSize=14;startFill=0;edgeStyle=orthogonalEdgeStyle;align=left;verticalAlign=bottom;rounded=0;" parent="1" source="Ps_EMhDIZoAq7-vSNueT-14" target="oLGFi5Bt2kVoAcSP6h3x-3" edge="1">
          <mxGeometry x="-1" y="3" relative="1" as="geometry">
            <mxPoint x="20" y="270" as="sourcePoint" />
            <mxPoint x="30" y="223" as="targetPoint" />
            <Array as="points">
              <mxPoint x="90" y="340" />
              <mxPoint x="90" y="340" />
            </Array>
          </mxGeometry>
        </mxCell>
        <mxCell id="oLGFi5Bt2kVoAcSP6h3x-15" style="edgeStyle=orthogonalEdgeStyle;rounded=0;orthogonalLoop=1;jettySize=auto;html=1;endArrow=block;endFill=0;startSize=6;endSize=12;dashed=1;dashPattern=8 8;" parent="1" source="oLGFi5Bt2kVoAcSP6h3x-10" target="oLGFi5Bt2kVoAcSP6h3x-3" edge="1">
          <mxGeometry relative="1" as="geometry" />
        </mxCell>
        <mxCell id="oLGFi5Bt2kVoAcSP6h3x-10" value="SeparateAssign" style="swimlane;fontStyle=1;align=center;verticalAlign=top;childLayout=stackLayout;horizontal=1;startSize=40;horizontalStack=0;resizeParent=1;resizeParentMax=0;resizeLast=0;collapsible=1;marginBottom=0;" parent="1" vertex="1">
          <mxGeometry x="10" y="570" width="160" height="48" as="geometry" />
        </mxCell>
        <mxCell id="oLGFi5Bt2kVoAcSP6h3x-11" value="" style="line;strokeWidth=1;fillColor=none;align=left;verticalAlign=middle;spacingTop=-1;spacingLeft=3;spacingRight=3;rotatable=0;labelPosition=right;points=[];portConstraint=eastwest;strokeColor=inherit;" parent="oLGFi5Bt2kVoAcSP6h3x-10" vertex="1">
          <mxGeometry y="40" width="160" height="8" as="geometry" />
        </mxCell>
        <mxCell id="oLGFi5Bt2kVoAcSP6h3x-13" value="SeparatePipe" style="swimlane;fontStyle=1;align=center;verticalAlign=top;childLayout=stackLayout;horizontal=1;startSize=40;horizontalStack=0;resizeParent=1;resizeParentMax=0;resizeLast=0;collapsible=1;marginBottom=0;" parent="1" vertex="1">
          <mxGeometry x="120" y="630" width="160" height="48" as="geometry" />
        </mxCell>
        <mxCell id="oLGFi5Bt2kVoAcSP6h3x-14" value="" style="line;strokeWidth=1;fillColor=none;align=left;verticalAlign=middle;spacingTop=-1;spacingLeft=3;spacingRight=3;rotatable=0;labelPosition=right;points=[];portConstraint=eastwest;strokeColor=inherit;" parent="oLGFi5Bt2kVoAcSP6h3x-13" vertex="1">
          <mxGeometry y="40" width="160" height="8" as="geometry" />
        </mxCell>
        <mxCell id="oLGFi5Bt2kVoAcSP6h3x-16" style="edgeStyle=orthogonalEdgeStyle;rounded=0;orthogonalLoop=1;jettySize=auto;html=1;endArrow=block;endFill=0;startSize=6;endSize=12;dashed=1;dashPattern=8 8;" parent="1" source="oLGFi5Bt2kVoAcSP6h3x-13" target="oLGFi5Bt2kVoAcSP6h3x-3" edge="1">
          <mxGeometry relative="1" as="geometry">
            <mxPoint x="60" y="580" as="sourcePoint" />
            <mxPoint x="100" y="534" as="targetPoint" />
            <Array as="points">
              <mxPoint x="200" y="550" />
              <mxPoint x="90" y="550" />
            </Array>
          </mxGeometry>
        </mxCell>
        <mxCell id="oLGFi5Bt2kVoAcSP6h3x-17" value="*" style="text;html=1;align=center;verticalAlign=middle;resizable=0;points=[];autosize=1;strokeColor=none;fillColor=none;" parent="1" vertex="1">
          <mxGeometry x="60" y="330" width="30" height="30" as="geometry" />
        </mxCell>
        <mxCell id="oLGFi5Bt2kVoAcSP6h3x-19" value="&lt;p style=&quot;margin:0px;margin-top:4px;text-align:center;&quot;&gt;&lt;b&gt;Grep&lt;/b&gt;&lt;/p&gt;" style="verticalAlign=top;align=left;overflow=fill;fontSize=12;fontFamily=Helvetica;html=1;" parent="1" vertex="1">
          <mxGeometry x="400" y="920" width="80" height="40" as="geometry" />
        </mxCell>
        <mxCell id="oLGFi5Bt2kVoAcSP6h3x-20" value="" style="endArrow=block;endSize=16;endFill=0;html=1;strokeColor=default;rounded=0;edgeStyle=orthogonalEdgeStyle;" parent="1" source="oLGFi5Bt2kVoAcSP6h3x-19" target="Ps_EMhDIZoAq7-vSNueT-26" edge="1">
          <mxGeometry width="160" relative="1" as="geometry">
            <mxPoint x="490" y="880" as="sourcePoint" />
            <mxPoint x="450" y="716" as="targetPoint" />
            <Array as="points">
              <mxPoint x="500" y="940" />
              <mxPoint x="500" y="740" />
              <mxPoint x="440" y="740" />
            </Array>
          </mxGeometry>
        </mxCell>
      </root>
    </mxGraphModel>
  </diagram>
</mxfile>
